<mxfile host="Electron" agent="Mozilla/5.0 (Windows NT 10.0; Win64; x64) AppleWebKit/537.36 (KHTML, like Gecko) draw.io/25.0.1 Chrome/128.0.6613.186 Electron/32.2.6 Safari/537.36" version="25.0.1">
  <diagram id="C5RBs43oDa-KdzZeNtuy" name="Page-1">
    <mxGraphModel dx="1673" dy="1322" grid="1" gridSize="10" guides="1" tooltips="1" connect="1" arrows="1" fold="1" page="1" pageScale="1" pageWidth="1169" pageHeight="827" math="0" shadow="0">
      <root>
        <mxCell id="WIyWlLk6GJQsqaUBKTNV-0" />
        <mxCell id="WIyWlLk6GJQsqaUBKTNV-1" parent="WIyWlLk6GJQsqaUBKTNV-0" />
        <mxCell id="tji_d3_G7364Ed7_e_69-3" value="" style="edgeStyle=orthogonalEdgeStyle;rounded=0;orthogonalLoop=1;jettySize=auto;html=1;" edge="1" parent="WIyWlLk6GJQsqaUBKTNV-1" source="tji_d3_G7364Ed7_e_69-0" target="tji_d3_G7364Ed7_e_69-2">
          <mxGeometry relative="1" as="geometry" />
        </mxCell>
        <mxCell id="tji_d3_G7364Ed7_e_69-0" value="" style="ellipse;fillColor=strokeColor;html=1;" vertex="1" parent="WIyWlLk6GJQsqaUBKTNV-1">
          <mxGeometry x="85" y="50" width="30" height="30" as="geometry" />
        </mxCell>
        <mxCell id="tji_d3_G7364Ed7_e_69-1" value="" style="ellipse;html=1;shape=endState;fillColor=strokeColor;" vertex="1" parent="WIyWlLk6GJQsqaUBKTNV-1">
          <mxGeometry y="470" width="30" height="30" as="geometry" />
        </mxCell>
        <mxCell id="tji_d3_G7364Ed7_e_69-5" value="" style="edgeStyle=orthogonalEdgeStyle;rounded=0;orthogonalLoop=1;jettySize=auto;html=1;" edge="1" parent="WIyWlLk6GJQsqaUBKTNV-1" source="tji_d3_G7364Ed7_e_69-2" target="tji_d3_G7364Ed7_e_69-4">
          <mxGeometry relative="1" as="geometry" />
        </mxCell>
        <mxCell id="tji_d3_G7364Ed7_e_69-2" value="Scanner vorbereiten" style="rounded=1;whiteSpace=wrap;html=1;" vertex="1" parent="WIyWlLk6GJQsqaUBKTNV-1">
          <mxGeometry x="40" y="100" width="120" height="60" as="geometry" />
        </mxCell>
        <mxCell id="tji_d3_G7364Ed7_e_69-4" value="Alter abfragen" style="rounded=1;whiteSpace=wrap;html=1;" vertex="1" parent="WIyWlLk6GJQsqaUBKTNV-1">
          <mxGeometry x="40" y="180" width="120" height="60" as="geometry" />
        </mxCell>
        <mxCell id="tji_d3_G7364Ed7_e_69-11" value="" style="edgeStyle=orthogonalEdgeStyle;rounded=0;orthogonalLoop=1;jettySize=auto;html=1;exitX=0.5;exitY=1;exitDx=0;exitDy=0;" edge="1" parent="WIyWlLk6GJQsqaUBKTNV-1" source="tji_d3_G7364Ed7_e_69-4" target="tji_d3_G7364Ed7_e_69-10">
          <mxGeometry relative="1" as="geometry">
            <mxPoint x="100" y="320.0000000000001" as="sourcePoint" />
          </mxGeometry>
        </mxCell>
        <mxCell id="tji_d3_G7364Ed7_e_69-13" value="" style="edgeStyle=orthogonalEdgeStyle;rounded=0;orthogonalLoop=1;jettySize=auto;html=1;" edge="1" parent="WIyWlLk6GJQsqaUBKTNV-1" source="tji_d3_G7364Ed7_e_69-10" target="tji_d3_G7364Ed7_e_69-12">
          <mxGeometry relative="1" as="geometry" />
        </mxCell>
        <mxCell id="tji_d3_G7364Ed7_e_69-17" value="[Alter &amp;lt; 0?]" style="edgeLabel;html=1;align=center;verticalAlign=middle;resizable=0;points=[];" vertex="1" connectable="0" parent="tji_d3_G7364Ed7_e_69-13">
          <mxGeometry x="-0.0534" relative="1" as="geometry">
            <mxPoint as="offset" />
          </mxGeometry>
        </mxCell>
        <mxCell id="tji_d3_G7364Ed7_e_69-15" value="" style="edgeStyle=orthogonalEdgeStyle;rounded=0;orthogonalLoop=1;jettySize=auto;html=1;" edge="1" parent="WIyWlLk6GJQsqaUBKTNV-1" source="tji_d3_G7364Ed7_e_69-10" target="tji_d3_G7364Ed7_e_69-14">
          <mxGeometry relative="1" as="geometry" />
        </mxCell>
        <mxCell id="tji_d3_G7364Ed7_e_69-20" value="[sonst]" style="edgeLabel;html=1;align=center;verticalAlign=middle;resizable=0;points=[];" vertex="1" connectable="0" parent="tji_d3_G7364Ed7_e_69-15">
          <mxGeometry x="-0.5435" y="-1" relative="1" as="geometry">
            <mxPoint x="1" y="6" as="offset" />
          </mxGeometry>
        </mxCell>
        <mxCell id="tji_d3_G7364Ed7_e_69-10" value="" style="rhombus;" vertex="1" parent="WIyWlLk6GJQsqaUBKTNV-1">
          <mxGeometry x="85" y="265" width="30" height="30" as="geometry" />
        </mxCell>
        <mxCell id="tji_d3_G7364Ed7_e_69-16" value="" style="edgeStyle=orthogonalEdgeStyle;rounded=0;orthogonalLoop=1;jettySize=auto;html=1;entryX=1;entryY=0.5;entryDx=0;entryDy=0;" edge="1" parent="WIyWlLk6GJQsqaUBKTNV-1" source="tji_d3_G7364Ed7_e_69-12" target="tji_d3_G7364Ed7_e_69-14">
          <mxGeometry relative="1" as="geometry">
            <Array as="points">
              <mxPoint x="240" y="350" />
            </Array>
          </mxGeometry>
        </mxCell>
        <mxCell id="tji_d3_G7364Ed7_e_69-12" value="Warnmeldung ausgeben" style="rounded=1;whiteSpace=wrap;html=1;" vertex="1" parent="WIyWlLk6GJQsqaUBKTNV-1">
          <mxGeometry x="200" y="250" width="120" height="60" as="geometry" />
        </mxCell>
        <mxCell id="tji_d3_G7364Ed7_e_69-19" value="" style="edgeStyle=orthogonalEdgeStyle;rounded=0;orthogonalLoop=1;jettySize=auto;html=1;" edge="1" parent="WIyWlLk6GJQsqaUBKTNV-1" source="tji_d3_G7364Ed7_e_69-14" target="tji_d3_G7364Ed7_e_69-18">
          <mxGeometry relative="1" as="geometry" />
        </mxCell>
        <mxCell id="tji_d3_G7364Ed7_e_69-14" value="" style="rhombus;" vertex="1" parent="WIyWlLk6GJQsqaUBKTNV-1">
          <mxGeometry x="85" y="335" width="30" height="30" as="geometry" />
        </mxCell>
        <mxCell id="tji_d3_G7364Ed7_e_69-22" value="" style="edgeStyle=orthogonalEdgeStyle;rounded=0;orthogonalLoop=1;jettySize=auto;html=1;" edge="1" parent="WIyWlLk6GJQsqaUBKTNV-1" source="tji_d3_G7364Ed7_e_69-18" target="tji_d3_G7364Ed7_e_69-21">
          <mxGeometry relative="1" as="geometry" />
        </mxCell>
        <mxCell id="tji_d3_G7364Ed7_e_69-18" value="Zähler mit Wert 2 initialisieren" style="rounded=1;whiteSpace=wrap;html=1;" vertex="1" parent="WIyWlLk6GJQsqaUBKTNV-1">
          <mxGeometry x="40" y="390" width="120" height="60" as="geometry" />
        </mxCell>
        <mxCell id="tji_d3_G7364Ed7_e_69-31" value="" style="edgeStyle=orthogonalEdgeStyle;rounded=0;orthogonalLoop=1;jettySize=auto;html=1;" edge="1" parent="WIyWlLk6GJQsqaUBKTNV-1" source="tji_d3_G7364Ed7_e_69-21" target="tji_d3_G7364Ed7_e_69-28">
          <mxGeometry relative="1" as="geometry" />
        </mxCell>
        <mxCell id="tji_d3_G7364Ed7_e_69-32" value="[Zähler &amp;lt; Alter?]" style="edgeLabel;html=1;align=center;verticalAlign=middle;resizable=0;points=[];" vertex="1" connectable="0" parent="tji_d3_G7364Ed7_e_69-31">
          <mxGeometry x="-0.0181" y="-1" relative="1" as="geometry">
            <mxPoint as="offset" />
          </mxGeometry>
        </mxCell>
        <mxCell id="tji_d3_G7364Ed7_e_69-40" style="edgeStyle=orthogonalEdgeStyle;rounded=0;orthogonalLoop=1;jettySize=auto;html=1;entryX=1;entryY=0.5;entryDx=0;entryDy=0;" edge="1" parent="WIyWlLk6GJQsqaUBKTNV-1" source="tji_d3_G7364Ed7_e_69-21" target="tji_d3_G7364Ed7_e_69-1">
          <mxGeometry relative="1" as="geometry" />
        </mxCell>
        <mxCell id="tji_d3_G7364Ed7_e_69-41" value="[sonst]" style="edgeLabel;html=1;align=center;verticalAlign=middle;resizable=0;points=[];" vertex="1" connectable="0" parent="tji_d3_G7364Ed7_e_69-40">
          <mxGeometry x="-0.1852" y="1" relative="1" as="geometry">
            <mxPoint as="offset" />
          </mxGeometry>
        </mxCell>
        <mxCell id="tji_d3_G7364Ed7_e_69-21" value="" style="rhombus;" vertex="1" parent="WIyWlLk6GJQsqaUBKTNV-1">
          <mxGeometry x="85" y="470" width="30" height="30" as="geometry" />
        </mxCell>
        <mxCell id="tji_d3_G7364Ed7_e_69-30" value="" style="edgeStyle=orthogonalEdgeStyle;rounded=0;orthogonalLoop=1;jettySize=auto;html=1;" edge="1" parent="WIyWlLk6GJQsqaUBKTNV-1" source="tji_d3_G7364Ed7_e_69-28" target="tji_d3_G7364Ed7_e_69-29">
          <mxGeometry relative="1" as="geometry" />
        </mxCell>
        <mxCell id="tji_d3_G7364Ed7_e_69-28" value="Zähler ausgeben" style="rounded=1;whiteSpace=wrap;html=1;" vertex="1" parent="WIyWlLk6GJQsqaUBKTNV-1">
          <mxGeometry x="230" y="455" width="120" height="60" as="geometry" />
        </mxCell>
        <mxCell id="tji_d3_G7364Ed7_e_69-34" value="" style="edgeStyle=orthogonalEdgeStyle;rounded=0;orthogonalLoop=1;jettySize=auto;html=1;entryX=0.5;entryY=1;entryDx=0;entryDy=0;" edge="1" parent="WIyWlLk6GJQsqaUBKTNV-1" source="tji_d3_G7364Ed7_e_69-29" target="tji_d3_G7364Ed7_e_69-21">
          <mxGeometry relative="1" as="geometry">
            <mxPoint x="115" y="570" as="targetPoint" />
          </mxGeometry>
        </mxCell>
        <mxCell id="tji_d3_G7364Ed7_e_69-29" value="Zähler um 2 erhöhen" style="whiteSpace=wrap;html=1;rounded=1;" vertex="1" parent="WIyWlLk6GJQsqaUBKTNV-1">
          <mxGeometry x="230" y="540" width="120" height="60" as="geometry" />
        </mxCell>
        <mxCell id="tji_d3_G7364Ed7_e_69-42" value="&lt;h1 style=&quot;margin-top: 0px;&quot;&gt;Aufgabe 1&lt;/h1&gt;&lt;div&gt;Diese Aufgabe wurde nur &lt;br&gt;&quot;zum Spaß&quot; berarbeitet.&lt;/div&gt;" style="text;html=1;whiteSpace=wrap;overflow=hidden;rounded=0;" vertex="1" parent="WIyWlLk6GJQsqaUBKTNV-1">
          <mxGeometry x="170" y="50" width="180" height="120" as="geometry" />
        </mxCell>
        <mxCell id="tji_d3_G7364Ed7_e_69-43" value="" style="edgeStyle=orthogonalEdgeStyle;rounded=0;orthogonalLoop=1;jettySize=auto;html=1;" edge="1" parent="WIyWlLk6GJQsqaUBKTNV-1" source="tji_d3_G7364Ed7_e_69-44" target="tji_d3_G7364Ed7_e_69-47">
          <mxGeometry relative="1" as="geometry" />
        </mxCell>
        <mxCell id="tji_d3_G7364Ed7_e_69-44" value="" style="ellipse;fillColor=strokeColor;html=1;" vertex="1" parent="WIyWlLk6GJQsqaUBKTNV-1">
          <mxGeometry x="499" y="50" width="30" height="30" as="geometry" />
        </mxCell>
        <mxCell id="tji_d3_G7364Ed7_e_69-46" value="" style="edgeStyle=orthogonalEdgeStyle;rounded=0;orthogonalLoop=1;jettySize=auto;html=1;" edge="1" parent="WIyWlLk6GJQsqaUBKTNV-1" source="tji_d3_G7364Ed7_e_69-47" target="tji_d3_G7364Ed7_e_69-48">
          <mxGeometry relative="1" as="geometry" />
        </mxCell>
        <mxCell id="tji_d3_G7364Ed7_e_69-47" value="Scanner vorbereiten" style="rounded=1;whiteSpace=wrap;html=1;" vertex="1" parent="WIyWlLk6GJQsqaUBKTNV-1">
          <mxGeometry x="454" y="100" width="120" height="60" as="geometry" />
        </mxCell>
        <mxCell id="tji_d3_G7364Ed7_e_69-93" value="" style="edgeStyle=orthogonalEdgeStyle;rounded=0;orthogonalLoop=1;jettySize=auto;html=1;" edge="1" parent="WIyWlLk6GJQsqaUBKTNV-1" source="tji_d3_G7364Ed7_e_69-48" target="tji_d3_G7364Ed7_e_69-92">
          <mxGeometry relative="1" as="geometry" />
        </mxCell>
        <mxCell id="tji_d3_G7364Ed7_e_69-48" value="Zahl 1 abfragen" style="rounded=1;whiteSpace=wrap;html=1;" vertex="1" parent="WIyWlLk6GJQsqaUBKTNV-1">
          <mxGeometry x="454" y="180" width="120" height="60" as="geometry" />
        </mxCell>
        <mxCell id="tji_d3_G7364Ed7_e_69-70" value="&lt;h1 style=&quot;margin-top: 0px;&quot;&gt;Aufgabe 2&lt;/h1&gt;&lt;div&gt;Diese Aufgabe wurde nur &lt;br&gt;&quot;zum Spaß&quot; berarbeitet.&lt;/div&gt;" style="text;html=1;whiteSpace=wrap;overflow=hidden;rounded=0;" vertex="1" parent="WIyWlLk6GJQsqaUBKTNV-1">
          <mxGeometry x="584" y="50" width="180" height="120" as="geometry" />
        </mxCell>
        <mxCell id="tji_d3_G7364Ed7_e_69-71" value="" style="ellipse;html=1;shape=endState;fillColor=strokeColor;" vertex="1" parent="WIyWlLk6GJQsqaUBKTNV-1">
          <mxGeometry x="414" y="620" width="30" height="30" as="geometry" />
        </mxCell>
        <mxCell id="tji_d3_G7364Ed7_e_69-72" value="" style="edgeStyle=orthogonalEdgeStyle;rounded=0;orthogonalLoop=1;jettySize=auto;html=1;" edge="1" parent="WIyWlLk6GJQsqaUBKTNV-1" source="tji_d3_G7364Ed7_e_69-76" target="tji_d3_G7364Ed7_e_69-78">
          <mxGeometry relative="1" as="geometry" />
        </mxCell>
        <mxCell id="tji_d3_G7364Ed7_e_69-73" value="[Zahl 1 &amp;lt; Zahl 2?]" style="edgeLabel;html=1;align=center;verticalAlign=middle;resizable=0;points=[];" vertex="1" connectable="0" parent="tji_d3_G7364Ed7_e_69-72">
          <mxGeometry x="-0.0534" relative="1" as="geometry">
            <mxPoint as="offset" />
          </mxGeometry>
        </mxCell>
        <mxCell id="tji_d3_G7364Ed7_e_69-74" value="" style="edgeStyle=orthogonalEdgeStyle;rounded=0;orthogonalLoop=1;jettySize=auto;html=1;" edge="1" parent="WIyWlLk6GJQsqaUBKTNV-1" source="tji_d3_G7364Ed7_e_69-76" target="tji_d3_G7364Ed7_e_69-80">
          <mxGeometry relative="1" as="geometry" />
        </mxCell>
        <mxCell id="tji_d3_G7364Ed7_e_69-75" value="[sonst]" style="edgeLabel;html=1;align=center;verticalAlign=middle;resizable=0;points=[];" vertex="1" connectable="0" parent="tji_d3_G7364Ed7_e_69-74">
          <mxGeometry x="-0.5435" y="-1" relative="1" as="geometry">
            <mxPoint x="1" y="6" as="offset" />
          </mxGeometry>
        </mxCell>
        <mxCell id="tji_d3_G7364Ed7_e_69-76" value="" style="rhombus;" vertex="1" parent="WIyWlLk6GJQsqaUBKTNV-1">
          <mxGeometry x="499" y="345" width="30" height="30" as="geometry" />
        </mxCell>
        <mxCell id="tji_d3_G7364Ed7_e_69-77" value="" style="edgeStyle=orthogonalEdgeStyle;rounded=0;orthogonalLoop=1;jettySize=auto;html=1;entryX=1;entryY=0.5;entryDx=0;entryDy=0;" edge="1" parent="WIyWlLk6GJQsqaUBKTNV-1" source="tji_d3_G7364Ed7_e_69-78" target="tji_d3_G7364Ed7_e_69-80">
          <mxGeometry relative="1" as="geometry">
            <Array as="points">
              <mxPoint x="704" y="430" />
            </Array>
          </mxGeometry>
        </mxCell>
        <mxCell id="tji_d3_G7364Ed7_e_69-78" value="Zahlen tauschen" style="rounded=1;whiteSpace=wrap;html=1;" vertex="1" parent="WIyWlLk6GJQsqaUBKTNV-1">
          <mxGeometry x="644" y="330" width="120" height="60" as="geometry" />
        </mxCell>
        <mxCell id="tji_d3_G7364Ed7_e_69-99" value="" style="edgeStyle=orthogonalEdgeStyle;rounded=0;orthogonalLoop=1;jettySize=auto;html=1;" edge="1" parent="WIyWlLk6GJQsqaUBKTNV-1" source="tji_d3_G7364Ed7_e_69-80" target="tji_d3_G7364Ed7_e_69-98">
          <mxGeometry relative="1" as="geometry" />
        </mxCell>
        <mxCell id="tji_d3_G7364Ed7_e_69-80" value="" style="rhombus;" vertex="1" parent="WIyWlLk6GJQsqaUBKTNV-1">
          <mxGeometry x="499" y="415" width="30" height="30" as="geometry" />
        </mxCell>
        <mxCell id="tji_d3_G7364Ed7_e_69-81" value="" style="edgeStyle=orthogonalEdgeStyle;rounded=0;orthogonalLoop=1;jettySize=auto;html=1;" edge="1" parent="WIyWlLk6GJQsqaUBKTNV-1" source="tji_d3_G7364Ed7_e_69-82" target="tji_d3_G7364Ed7_e_69-87">
          <mxGeometry relative="1" as="geometry" />
        </mxCell>
        <mxCell id="tji_d3_G7364Ed7_e_69-82" value="Zähler um 1 erhöhen" style="rounded=1;whiteSpace=wrap;html=1;" vertex="1" parent="WIyWlLk6GJQsqaUBKTNV-1">
          <mxGeometry x="454" y="540" width="120" height="60" as="geometry" />
        </mxCell>
        <mxCell id="tji_d3_G7364Ed7_e_69-83" value="" style="edgeStyle=orthogonalEdgeStyle;rounded=0;orthogonalLoop=1;jettySize=auto;html=1;" edge="1" parent="WIyWlLk6GJQsqaUBKTNV-1" source="tji_d3_G7364Ed7_e_69-87">
          <mxGeometry relative="1" as="geometry">
            <mxPoint x="644" y="635" as="targetPoint" />
          </mxGeometry>
        </mxCell>
        <mxCell id="tji_d3_G7364Ed7_e_69-84" value="[Zähler &amp;lt;=&amp;nbsp;&lt;div&gt;oberes Limit?]&lt;/div&gt;" style="edgeLabel;html=1;align=center;verticalAlign=middle;resizable=0;points=[];" vertex="1" connectable="0" parent="tji_d3_G7364Ed7_e_69-83">
          <mxGeometry x="-0.0181" y="-1" relative="1" as="geometry">
            <mxPoint as="offset" />
          </mxGeometry>
        </mxCell>
        <mxCell id="tji_d3_G7364Ed7_e_69-85" style="edgeStyle=orthogonalEdgeStyle;rounded=0;orthogonalLoop=1;jettySize=auto;html=1;entryX=1;entryY=0.5;entryDx=0;entryDy=0;" edge="1" parent="WIyWlLk6GJQsqaUBKTNV-1" source="tji_d3_G7364Ed7_e_69-87" target="tji_d3_G7364Ed7_e_69-71">
          <mxGeometry relative="1" as="geometry" />
        </mxCell>
        <mxCell id="tji_d3_G7364Ed7_e_69-86" value="[sonst]" style="edgeLabel;html=1;align=center;verticalAlign=middle;resizable=0;points=[];" vertex="1" connectable="0" parent="tji_d3_G7364Ed7_e_69-85">
          <mxGeometry x="-0.1852" y="1" relative="1" as="geometry">
            <mxPoint as="offset" />
          </mxGeometry>
        </mxCell>
        <mxCell id="tji_d3_G7364Ed7_e_69-87" value="" style="rhombus;" vertex="1" parent="WIyWlLk6GJQsqaUBKTNV-1">
          <mxGeometry x="499" y="620" width="30" height="30" as="geometry" />
        </mxCell>
        <mxCell id="tji_d3_G7364Ed7_e_69-90" value="" style="edgeStyle=orthogonalEdgeStyle;rounded=0;orthogonalLoop=1;jettySize=auto;html=1;entryX=0.5;entryY=1;entryDx=0;entryDy=0;" edge="1" parent="WIyWlLk6GJQsqaUBKTNV-1" source="tji_d3_G7364Ed7_e_69-91" target="tji_d3_G7364Ed7_e_69-87">
          <mxGeometry relative="1" as="geometry">
            <mxPoint x="529" y="720" as="targetPoint" />
          </mxGeometry>
        </mxCell>
        <mxCell id="tji_d3_G7364Ed7_e_69-91" value="Zähler um 1 erhöhen" style="whiteSpace=wrap;html=1;rounded=1;" vertex="1" parent="WIyWlLk6GJQsqaUBKTNV-1">
          <mxGeometry x="599" y="740" width="120" height="60" as="geometry" />
        </mxCell>
        <mxCell id="tji_d3_G7364Ed7_e_69-95" value="" style="edgeStyle=orthogonalEdgeStyle;rounded=0;orthogonalLoop=1;jettySize=auto;html=1;entryX=0.5;entryY=0;entryDx=0;entryDy=0;" edge="1" parent="WIyWlLk6GJQsqaUBKTNV-1" source="tji_d3_G7364Ed7_e_69-92" target="tji_d3_G7364Ed7_e_69-76">
          <mxGeometry relative="1" as="geometry">
            <mxPoint x="514" y="340.0000000000001" as="targetPoint" />
          </mxGeometry>
        </mxCell>
        <mxCell id="tji_d3_G7364Ed7_e_69-92" value="Zahl 2 abfragen" style="whiteSpace=wrap;html=1;rounded=1;" vertex="1" parent="WIyWlLk6GJQsqaUBKTNV-1">
          <mxGeometry x="454" y="260" width="120" height="60" as="geometry" />
        </mxCell>
        <mxCell id="tji_d3_G7364Ed7_e_69-104" value="" style="edgeStyle=orthogonalEdgeStyle;rounded=0;orthogonalLoop=1;jettySize=auto;html=1;" edge="1" parent="WIyWlLk6GJQsqaUBKTNV-1" source="tji_d3_G7364Ed7_e_69-96" target="tji_d3_G7364Ed7_e_69-103">
          <mxGeometry relative="1" as="geometry">
            <Array as="points">
              <mxPoint x="790" y="635" />
            </Array>
          </mxGeometry>
        </mxCell>
        <mxCell id="tji_d3_G7364Ed7_e_69-108" value="[Zähler % 2 == 1?]" style="edgeLabel;html=1;align=center;verticalAlign=middle;resizable=0;points=[];" vertex="1" connectable="0" parent="tji_d3_G7364Ed7_e_69-104">
          <mxGeometry x="-0.1336" relative="1" as="geometry">
            <mxPoint as="offset" />
          </mxGeometry>
        </mxCell>
        <mxCell id="tji_d3_G7364Ed7_e_69-106" value="" style="edgeStyle=orthogonalEdgeStyle;rounded=0;orthogonalLoop=1;jettySize=auto;html=1;" edge="1" parent="WIyWlLk6GJQsqaUBKTNV-1" source="tji_d3_G7364Ed7_e_69-96" target="tji_d3_G7364Ed7_e_69-105">
          <mxGeometry relative="1" as="geometry" />
        </mxCell>
        <mxCell id="tji_d3_G7364Ed7_e_69-107" value="[sonst]" style="edgeLabel;html=1;align=center;verticalAlign=middle;resizable=0;points=[];" vertex="1" connectable="0" parent="tji_d3_G7364Ed7_e_69-106">
          <mxGeometry x="0.1257" y="-1" relative="1" as="geometry">
            <mxPoint as="offset" />
          </mxGeometry>
        </mxCell>
        <mxCell id="tji_d3_G7364Ed7_e_69-96" value="" style="rhombus;" vertex="1" parent="WIyWlLk6GJQsqaUBKTNV-1">
          <mxGeometry x="644" y="620" width="30" height="30" as="geometry" />
        </mxCell>
        <mxCell id="tji_d3_G7364Ed7_e_69-102" style="edgeStyle=orthogonalEdgeStyle;rounded=0;orthogonalLoop=1;jettySize=auto;html=1;exitX=0.5;exitY=1;exitDx=0;exitDy=0;entryX=0.5;entryY=0;entryDx=0;entryDy=0;" edge="1" parent="WIyWlLk6GJQsqaUBKTNV-1" source="tji_d3_G7364Ed7_e_69-98" target="tji_d3_G7364Ed7_e_69-82">
          <mxGeometry relative="1" as="geometry" />
        </mxCell>
        <mxCell id="tji_d3_G7364Ed7_e_69-98" value="Zähler = Zahl1&lt;div&gt;oberes Limit = Zahl2&lt;/div&gt;" style="rounded=1;whiteSpace=wrap;html=1;" vertex="1" parent="WIyWlLk6GJQsqaUBKTNV-1">
          <mxGeometry x="454" y="460" width="120" height="60" as="geometry" />
        </mxCell>
        <mxCell id="tji_d3_G7364Ed7_e_69-109" value="" style="edgeStyle=orthogonalEdgeStyle;rounded=0;orthogonalLoop=1;jettySize=auto;html=1;" edge="1" parent="WIyWlLk6GJQsqaUBKTNV-1" source="tji_d3_G7364Ed7_e_69-103" target="tji_d3_G7364Ed7_e_69-105">
          <mxGeometry relative="1" as="geometry" />
        </mxCell>
        <mxCell id="tji_d3_G7364Ed7_e_69-103" value="Zähler ausgeben" style="rounded=1;whiteSpace=wrap;html=1;" vertex="1" parent="WIyWlLk6GJQsqaUBKTNV-1">
          <mxGeometry x="707" y="665" width="120" height="60" as="geometry" />
        </mxCell>
        <mxCell id="tji_d3_G7364Ed7_e_69-110" value="" style="edgeStyle=orthogonalEdgeStyle;rounded=0;orthogonalLoop=1;jettySize=auto;html=1;" edge="1" parent="WIyWlLk6GJQsqaUBKTNV-1" source="tji_d3_G7364Ed7_e_69-105" target="tji_d3_G7364Ed7_e_69-91">
          <mxGeometry relative="1" as="geometry" />
        </mxCell>
        <mxCell id="tji_d3_G7364Ed7_e_69-105" value="" style="rhombus;" vertex="1" parent="WIyWlLk6GJQsqaUBKTNV-1">
          <mxGeometry x="644" y="680" width="30" height="30" as="geometry" />
        </mxCell>
        <mxCell id="tji_d3_G7364Ed7_e_69-111" value="" style="edgeStyle=orthogonalEdgeStyle;rounded=0;orthogonalLoop=1;jettySize=auto;html=1;" edge="1" parent="WIyWlLk6GJQsqaUBKTNV-1" target="tji_d3_G7364Ed7_e_69-114">
          <mxGeometry relative="1" as="geometry">
            <mxPoint x="524" y="73.99999999999977" as="sourcePoint" />
          </mxGeometry>
        </mxCell>
        <mxCell id="tji_d3_G7364Ed7_e_69-113" value="" style="edgeStyle=orthogonalEdgeStyle;rounded=0;orthogonalLoop=1;jettySize=auto;html=1;" edge="1" parent="WIyWlLk6GJQsqaUBKTNV-1" target="tji_d3_G7364Ed7_e_69-116">
          <mxGeometry relative="1" as="geometry">
            <mxPoint x="524.0769230769233" y="154" as="sourcePoint" />
          </mxGeometry>
        </mxCell>
        <mxCell id="tji_d3_G7364Ed7_e_69-115" value="" style="edgeStyle=orthogonalEdgeStyle;rounded=0;orthogonalLoop=1;jettySize=auto;html=1;" edge="1" parent="WIyWlLk6GJQsqaUBKTNV-1" target="tji_d3_G7364Ed7_e_69-138">
          <mxGeometry relative="1" as="geometry">
            <mxPoint x="524.0769230769233" y="234" as="sourcePoint" />
          </mxGeometry>
        </mxCell>
        <mxCell id="tji_d3_G7364Ed7_e_69-119" value="" style="edgeStyle=orthogonalEdgeStyle;rounded=0;orthogonalLoop=1;jettySize=auto;html=1;" edge="1" parent="WIyWlLk6GJQsqaUBKTNV-1" target="tji_d3_G7364Ed7_e_69-125">
          <mxGeometry relative="1" as="geometry">
            <mxPoint x="539" y="359.4999999999998" as="sourcePoint" />
          </mxGeometry>
        </mxCell>
        <mxCell id="tji_d3_G7364Ed7_e_69-120" value="[Zahl 1 &amp;lt; Zahl 2?]" style="edgeLabel;html=1;align=center;verticalAlign=middle;resizable=0;points=[];" vertex="1" connectable="0" parent="tji_d3_G7364Ed7_e_69-119">
          <mxGeometry x="-0.0534" relative="1" as="geometry">
            <mxPoint as="offset" />
          </mxGeometry>
        </mxCell>
        <mxCell id="tji_d3_G7364Ed7_e_69-121" value="" style="edgeStyle=orthogonalEdgeStyle;rounded=0;orthogonalLoop=1;jettySize=auto;html=1;" edge="1" parent="WIyWlLk6GJQsqaUBKTNV-1" target="tji_d3_G7364Ed7_e_69-127">
          <mxGeometry relative="1" as="geometry">
            <mxPoint x="524" y="368.9999999999998" as="sourcePoint" />
          </mxGeometry>
        </mxCell>
        <mxCell id="tji_d3_G7364Ed7_e_69-122" value="[sonst]" style="edgeLabel;html=1;align=center;verticalAlign=middle;resizable=0;points=[];" vertex="1" connectable="0" parent="tji_d3_G7364Ed7_e_69-121">
          <mxGeometry x="-0.5435" y="-1" relative="1" as="geometry">
            <mxPoint x="1" y="6" as="offset" />
          </mxGeometry>
        </mxCell>
        <mxCell id="tji_d3_G7364Ed7_e_69-124" value="" style="edgeStyle=orthogonalEdgeStyle;rounded=0;orthogonalLoop=1;jettySize=auto;html=1;entryX=1;entryY=0.5;entryDx=0;entryDy=0;" edge="1" parent="WIyWlLk6GJQsqaUBKTNV-1" target="tji_d3_G7364Ed7_e_69-127">
          <mxGeometry relative="1" as="geometry">
            <Array as="points">
              <mxPoint x="714" y="435" />
            </Array>
            <mxPoint x="714.0769230769233" y="383.9999999999998" as="sourcePoint" />
          </mxGeometry>
        </mxCell>
        <mxCell id="tji_d3_G7364Ed7_e_69-126" value="" style="edgeStyle=orthogonalEdgeStyle;rounded=0;orthogonalLoop=1;jettySize=auto;html=1;" edge="1" parent="WIyWlLk6GJQsqaUBKTNV-1" target="tji_d3_G7364Ed7_e_69-145">
          <mxGeometry relative="1" as="geometry">
            <mxPoint x="524.0769230769233" y="438.9512820512816" as="sourcePoint" />
          </mxGeometry>
        </mxCell>
        <mxCell id="tji_d3_G7364Ed7_e_69-128" value="" style="edgeStyle=orthogonalEdgeStyle;rounded=0;orthogonalLoop=1;jettySize=auto;html=1;" edge="1" parent="WIyWlLk6GJQsqaUBKTNV-1" target="tji_d3_G7364Ed7_e_69-134">
          <mxGeometry relative="1" as="geometry">
            <mxPoint x="524.0769230769233" y="593.9999999999998" as="sourcePoint" />
          </mxGeometry>
        </mxCell>
        <mxCell id="tji_d3_G7364Ed7_e_69-130" value="" style="edgeStyle=orthogonalEdgeStyle;rounded=0;orthogonalLoop=1;jettySize=auto;html=1;" edge="1" parent="WIyWlLk6GJQsqaUBKTNV-1">
          <mxGeometry relative="1" as="geometry">
            <mxPoint x="654" y="640" as="targetPoint" />
            <mxPoint x="538.9392712550612" y="634.4615384615386" as="sourcePoint" />
          </mxGeometry>
        </mxCell>
        <mxCell id="tji_d3_G7364Ed7_e_69-131" value="[Zähler &amp;lt;=&amp;nbsp;&lt;div&gt;oberes Limit?]&lt;/div&gt;" style="edgeLabel;html=1;align=center;verticalAlign=middle;resizable=0;points=[];" vertex="1" connectable="0" parent="tji_d3_G7364Ed7_e_69-130">
          <mxGeometry x="-0.0181" y="-1" relative="1" as="geometry">
            <mxPoint as="offset" />
          </mxGeometry>
        </mxCell>
        <mxCell id="tji_d3_G7364Ed7_e_69-132" style="edgeStyle=orthogonalEdgeStyle;rounded=0;orthogonalLoop=1;jettySize=auto;html=1;entryX=1;entryY=0.5;entryDx=0;entryDy=0;" edge="1" parent="WIyWlLk6GJQsqaUBKTNV-1" source="tji_d3_G7364Ed7_e_69-134">
          <mxGeometry relative="1" as="geometry">
            <mxPoint x="453.9999999999875" y="634.4999999999998" as="targetPoint" />
          </mxGeometry>
        </mxCell>
        <mxCell id="tji_d3_G7364Ed7_e_69-133" value="[sonst]" style="edgeLabel;html=1;align=center;verticalAlign=middle;resizable=0;points=[];" vertex="1" connectable="0" parent="tji_d3_G7364Ed7_e_69-132">
          <mxGeometry x="-0.1852" y="1" relative="1" as="geometry">
            <mxPoint as="offset" />
          </mxGeometry>
        </mxCell>
        <mxCell id="tji_d3_G7364Ed7_e_69-135" value="" style="edgeStyle=orthogonalEdgeStyle;rounded=0;orthogonalLoop=1;jettySize=auto;html=1;entryX=0.5;entryY=1;entryDx=0;entryDy=0;" edge="1" parent="WIyWlLk6GJQsqaUBKTNV-1" source="tji_d3_G7364Ed7_e_69-136">
          <mxGeometry relative="1" as="geometry">
            <mxPoint x="524" y="643.9999999999998" as="targetPoint" />
          </mxGeometry>
        </mxCell>
        <mxCell id="tji_d3_G7364Ed7_e_69-137" value="" style="edgeStyle=orthogonalEdgeStyle;rounded=0;orthogonalLoop=1;jettySize=auto;html=1;entryX=0.5;entryY=0;entryDx=0;entryDy=0;" edge="1" parent="WIyWlLk6GJQsqaUBKTNV-1" source="tji_d3_G7364Ed7_e_69-138">
          <mxGeometry relative="1" as="geometry">
            <mxPoint x="524" y="350" as="targetPoint" />
          </mxGeometry>
        </mxCell>
        <mxCell id="tji_d3_G7364Ed7_e_69-139" value="" style="edgeStyle=orthogonalEdgeStyle;rounded=0;orthogonalLoop=1;jettySize=auto;html=1;" edge="1" parent="WIyWlLk6GJQsqaUBKTNV-1" target="tji_d3_G7364Ed7_e_69-147">
          <mxGeometry relative="1" as="geometry">
            <Array as="points">
              <mxPoint x="800" y="640" />
            </Array>
            <mxPoint x="675.3157894736842" y="640" as="sourcePoint" />
          </mxGeometry>
        </mxCell>
        <mxCell id="tji_d3_G7364Ed7_e_69-140" value="[Zähler % 2 == 1?]" style="edgeLabel;html=1;align=center;verticalAlign=middle;resizable=0;points=[];" vertex="1" connectable="0" parent="tji_d3_G7364Ed7_e_69-139">
          <mxGeometry x="-0.1336" relative="1" as="geometry">
            <mxPoint as="offset" />
          </mxGeometry>
        </mxCell>
        <mxCell id="tji_d3_G7364Ed7_e_69-141" value="" style="edgeStyle=orthogonalEdgeStyle;rounded=0;orthogonalLoop=1;jettySize=auto;html=1;" edge="1" parent="WIyWlLk6GJQsqaUBKTNV-1" target="tji_d3_G7364Ed7_e_69-149">
          <mxGeometry relative="1" as="geometry">
            <mxPoint x="669" y="643.9999999999998" as="sourcePoint" />
          </mxGeometry>
        </mxCell>
        <mxCell id="tji_d3_G7364Ed7_e_69-142" value="[sonst]" style="edgeLabel;html=1;align=center;verticalAlign=middle;resizable=0;points=[];" vertex="1" connectable="0" parent="tji_d3_G7364Ed7_e_69-141">
          <mxGeometry x="0.1257" y="-1" relative="1" as="geometry">
            <mxPoint as="offset" />
          </mxGeometry>
        </mxCell>
        <mxCell id="tji_d3_G7364Ed7_e_69-144" style="edgeStyle=orthogonalEdgeStyle;rounded=0;orthogonalLoop=1;jettySize=auto;html=1;exitX=0.5;exitY=1;exitDx=0;exitDy=0;entryX=0.5;entryY=0;entryDx=0;entryDy=0;" edge="1" parent="WIyWlLk6GJQsqaUBKTNV-1" source="tji_d3_G7364Ed7_e_69-145">
          <mxGeometry relative="1" as="geometry">
            <mxPoint x="524" y="545" as="targetPoint" />
          </mxGeometry>
        </mxCell>
        <mxCell id="tji_d3_G7364Ed7_e_69-146" value="" style="edgeStyle=orthogonalEdgeStyle;rounded=0;orthogonalLoop=1;jettySize=auto;html=1;" edge="1" parent="WIyWlLk6GJQsqaUBKTNV-1" target="tji_d3_G7364Ed7_e_69-149">
          <mxGeometry relative="1" as="geometry">
            <mxPoint x="717" y="694.4615384615386" as="sourcePoint" />
          </mxGeometry>
        </mxCell>
        <mxCell id="tji_d3_G7364Ed7_e_69-148" value="" style="edgeStyle=orthogonalEdgeStyle;rounded=0;orthogonalLoop=1;jettySize=auto;html=1;" edge="1" parent="WIyWlLk6GJQsqaUBKTNV-1" source="tji_d3_G7364Ed7_e_69-149">
          <mxGeometry relative="1" as="geometry">
            <mxPoint x="669" y="745" as="targetPoint" />
          </mxGeometry>
        </mxCell>
        <mxCell id="tji_d3_G7364Ed7_e_69-190" value="" style="edgeStyle=orthogonalEdgeStyle;rounded=0;orthogonalLoop=1;jettySize=auto;html=1;" edge="1" parent="WIyWlLk6GJQsqaUBKTNV-1" source="tji_d3_G7364Ed7_e_69-151" target="tji_d3_G7364Ed7_e_69-189">
          <mxGeometry relative="1" as="geometry" />
        </mxCell>
        <mxCell id="tji_d3_G7364Ed7_e_69-151" value="" style="ellipse;fillColor=strokeColor;html=1;" vertex="1" parent="WIyWlLk6GJQsqaUBKTNV-1">
          <mxGeometry x="959" y="50" width="30" height="30" as="geometry" />
        </mxCell>
        <mxCell id="tji_d3_G7364Ed7_e_69-156" value="&lt;h1 style=&quot;margin-top: 0px;&quot;&gt;Aufgabe 3&lt;/h1&gt;" style="text;html=1;whiteSpace=wrap;overflow=hidden;rounded=0;" vertex="1" parent="WIyWlLk6GJQsqaUBKTNV-1">
          <mxGeometry x="1044" y="50" width="180" height="120" as="geometry" />
        </mxCell>
        <mxCell id="tji_d3_G7364Ed7_e_69-233" style="edgeStyle=orthogonalEdgeStyle;rounded=0;orthogonalLoop=1;jettySize=auto;html=1;exitX=0.5;exitY=0;exitDx=0;exitDy=0;entryX=0.5;entryY=1;entryDx=0;entryDy=0;" edge="1" parent="WIyWlLk6GJQsqaUBKTNV-1" source="tji_d3_G7364Ed7_e_69-184" target="tji_d3_G7364Ed7_e_69-192">
          <mxGeometry relative="1" as="geometry" />
        </mxCell>
        <mxCell id="tji_d3_G7364Ed7_e_69-184" value="Zähler um 1 erhöhen" style="rounded=1;whiteSpace=wrap;html=1;" vertex="1" parent="WIyWlLk6GJQsqaUBKTNV-1">
          <mxGeometry x="914" y="260" width="120" height="60" as="geometry" />
        </mxCell>
        <mxCell id="tji_d3_G7364Ed7_e_69-193" value="" style="edgeStyle=orthogonalEdgeStyle;rounded=0;orthogonalLoop=1;jettySize=auto;html=1;" edge="1" parent="WIyWlLk6GJQsqaUBKTNV-1" source="tji_d3_G7364Ed7_e_69-189" target="tji_d3_G7364Ed7_e_69-192">
          <mxGeometry relative="1" as="geometry" />
        </mxCell>
        <mxCell id="tji_d3_G7364Ed7_e_69-189" value="Zähler mit 1 initialisieren" style="rounded=1;whiteSpace=wrap;html=1;" vertex="1" parent="WIyWlLk6GJQsqaUBKTNV-1">
          <mxGeometry x="914" y="100" width="120" height="60" as="geometry" />
        </mxCell>
        <mxCell id="tji_d3_G7364Ed7_e_69-207" style="edgeStyle=orthogonalEdgeStyle;rounded=0;orthogonalLoop=1;jettySize=auto;html=1;exitX=1;exitY=0.5;exitDx=0;exitDy=0;entryX=0;entryY=0.5;entryDx=0;entryDy=0;" edge="1" parent="WIyWlLk6GJQsqaUBKTNV-1" source="tji_d3_G7364Ed7_e_69-192">
          <mxGeometry relative="1" as="geometry">
            <mxPoint x="1120" y="195" as="targetPoint" />
          </mxGeometry>
        </mxCell>
        <mxCell id="tji_d3_G7364Ed7_e_69-208" value="[Zähler &amp;lt;= 12?]" style="edgeLabel;html=1;align=center;verticalAlign=middle;resizable=0;points=[];" vertex="1" connectable="0" parent="tji_d3_G7364Ed7_e_69-207">
          <mxGeometry x="-0.388" y="2" relative="1" as="geometry">
            <mxPoint x="15" y="2" as="offset" />
          </mxGeometry>
        </mxCell>
        <mxCell id="tji_d3_G7364Ed7_e_69-192" value="" style="rhombus;" vertex="1" parent="WIyWlLk6GJQsqaUBKTNV-1">
          <mxGeometry x="959" y="180" width="30" height="30" as="geometry" />
        </mxCell>
        <mxCell id="tji_d3_G7364Ed7_e_69-195" value="" style="ellipse;html=1;shape=endState;fillColor=strokeColor;" vertex="1" parent="WIyWlLk6GJQsqaUBKTNV-1">
          <mxGeometry x="860" y="180" width="30" height="30" as="geometry" />
        </mxCell>
        <mxCell id="tji_d3_G7364Ed7_e_69-198" style="edgeStyle=orthogonalEdgeStyle;rounded=0;orthogonalLoop=1;jettySize=auto;html=1;entryX=1;entryY=0.5;entryDx=0;entryDy=0;exitX=0;exitY=0.5;exitDx=0;exitDy=0;" edge="1" parent="WIyWlLk6GJQsqaUBKTNV-1" source="tji_d3_G7364Ed7_e_69-192" target="tji_d3_G7364Ed7_e_69-195">
          <mxGeometry relative="1" as="geometry" />
        </mxCell>
        <mxCell id="tji_d3_G7364Ed7_e_69-199" value="[sonst]" style="edgeLabel;html=1;align=center;verticalAlign=middle;resizable=0;points=[];" vertex="1" connectable="0" parent="tji_d3_G7364Ed7_e_69-198">
          <mxGeometry x="-0.1852" y="1" relative="1" as="geometry">
            <mxPoint as="offset" />
          </mxGeometry>
        </mxCell>
        <mxCell id="tji_d3_G7364Ed7_e_69-215" value="" style="edgeStyle=orthogonalEdgeStyle;rounded=0;orthogonalLoop=1;jettySize=auto;html=1;" edge="1" parent="WIyWlLk6GJQsqaUBKTNV-1" source="tji_d3_G7364Ed7_e_69-209" target="tji_d3_G7364Ed7_e_69-214">
          <mxGeometry relative="1" as="geometry" />
        </mxCell>
        <mxCell id="tji_d3_G7364Ed7_e_69-216" value="[Zähler%3 == 0]" style="edgeLabel;html=1;align=center;verticalAlign=middle;resizable=0;points=[];" vertex="1" connectable="0" parent="tji_d3_G7364Ed7_e_69-215">
          <mxGeometry x="-0.5633" y="1" relative="1" as="geometry">
            <mxPoint x="21" y="1" as="offset" />
          </mxGeometry>
        </mxCell>
        <mxCell id="tji_d3_G7364Ed7_e_69-218" value="" style="edgeStyle=orthogonalEdgeStyle;rounded=0;orthogonalLoop=1;jettySize=auto;html=1;" edge="1" parent="WIyWlLk6GJQsqaUBKTNV-1" source="tji_d3_G7364Ed7_e_69-209" target="tji_d3_G7364Ed7_e_69-217">
          <mxGeometry relative="1" as="geometry" />
        </mxCell>
        <mxCell id="tji_d3_G7364Ed7_e_69-219" value="[sonst]" style="edgeLabel;html=1;align=center;verticalAlign=middle;resizable=0;points=[];" vertex="1" connectable="0" parent="tji_d3_G7364Ed7_e_69-218">
          <mxGeometry x="0.007" y="-3" relative="1" as="geometry">
            <mxPoint as="offset" />
          </mxGeometry>
        </mxCell>
        <mxCell id="tji_d3_G7364Ed7_e_69-209" value="" style="rhombus;" vertex="1" parent="WIyWlLk6GJQsqaUBKTNV-1">
          <mxGeometry x="1119" y="180" width="30" height="30" as="geometry" />
        </mxCell>
        <mxCell id="tji_d3_G7364Ed7_e_69-231" style="edgeStyle=orthogonalEdgeStyle;rounded=0;orthogonalLoop=1;jettySize=auto;html=1;exitX=1;exitY=0.5;exitDx=0;exitDy=0;entryX=1;entryY=0.5;entryDx=0;entryDy=0;" edge="1" parent="WIyWlLk6GJQsqaUBKTNV-1" source="tji_d3_G7364Ed7_e_69-214" target="tji_d3_G7364Ed7_e_69-228">
          <mxGeometry relative="1" as="geometry">
            <mxPoint x="1050" y="440" as="targetPoint" />
          </mxGeometry>
        </mxCell>
        <mxCell id="tji_d3_G7364Ed7_e_69-214" value="Zähler + &quot; ---&quot;&lt;div&gt;ausgeben&lt;/div&gt;" style="rounded=1;whiteSpace=wrap;html=1;" vertex="1" parent="WIyWlLk6GJQsqaUBKTNV-1">
          <mxGeometry x="1250" y="165" width="120" height="60" as="geometry" />
        </mxCell>
        <mxCell id="tji_d3_G7364Ed7_e_69-221" value="" style="edgeStyle=orthogonalEdgeStyle;rounded=0;orthogonalLoop=1;jettySize=auto;html=1;" edge="1" parent="WIyWlLk6GJQsqaUBKTNV-1" source="tji_d3_G7364Ed7_e_69-217" target="tji_d3_G7364Ed7_e_69-220">
          <mxGeometry relative="1" as="geometry" />
        </mxCell>
        <mxCell id="tji_d3_G7364Ed7_e_69-226" value="[Zähler%2 == 0]" style="edgeLabel;html=1;align=center;verticalAlign=middle;resizable=0;points=[];" vertex="1" connectable="0" parent="tji_d3_G7364Ed7_e_69-221">
          <mxGeometry x="-0.1915" relative="1" as="geometry">
            <mxPoint x="4" as="offset" />
          </mxGeometry>
        </mxCell>
        <mxCell id="tji_d3_G7364Ed7_e_69-224" value="" style="edgeStyle=orthogonalEdgeStyle;rounded=0;orthogonalLoop=1;jettySize=auto;html=1;entryX=0.5;entryY=0;entryDx=0;entryDy=0;" edge="1" parent="WIyWlLk6GJQsqaUBKTNV-1" source="tji_d3_G7364Ed7_e_69-217" target="tji_d3_G7364Ed7_e_69-222">
          <mxGeometry relative="1" as="geometry">
            <mxPoint x="1134" y="350" as="targetPoint" />
          </mxGeometry>
        </mxCell>
        <mxCell id="tji_d3_G7364Ed7_e_69-227" value="[sonst]" style="edgeLabel;html=1;align=center;verticalAlign=middle;resizable=0;points=[];" vertex="1" connectable="0" parent="tji_d3_G7364Ed7_e_69-224">
          <mxGeometry x="-0.0941" relative="1" as="geometry">
            <mxPoint as="offset" />
          </mxGeometry>
        </mxCell>
        <mxCell id="tji_d3_G7364Ed7_e_69-217" value="" style="rhombus;" vertex="1" parent="WIyWlLk6GJQsqaUBKTNV-1">
          <mxGeometry x="1119" y="265" width="30" height="30" as="geometry" />
        </mxCell>
        <mxCell id="tji_d3_G7364Ed7_e_69-230" style="edgeStyle=orthogonalEdgeStyle;rounded=0;orthogonalLoop=1;jettySize=auto;html=1;entryX=1;entryY=0.5;entryDx=0;entryDy=0;exitX=0.5;exitY=1;exitDx=0;exitDy=0;" edge="1" parent="WIyWlLk6GJQsqaUBKTNV-1" source="tji_d3_G7364Ed7_e_69-220" target="tji_d3_G7364Ed7_e_69-228">
          <mxGeometry relative="1" as="geometry">
            <Array as="points">
              <mxPoint x="1310" y="455" />
            </Array>
          </mxGeometry>
        </mxCell>
        <mxCell id="tji_d3_G7364Ed7_e_69-220" value="Zähler + &quot; --&quot;&lt;div&gt;ausgeben&lt;/div&gt;" style="rounded=1;whiteSpace=wrap;html=1;" vertex="1" parent="WIyWlLk6GJQsqaUBKTNV-1">
          <mxGeometry x="1250" y="250" width="120" height="60" as="geometry" />
        </mxCell>
        <mxCell id="tji_d3_G7364Ed7_e_69-229" style="edgeStyle=orthogonalEdgeStyle;rounded=0;orthogonalLoop=1;jettySize=auto;html=1;entryX=1;entryY=0.5;entryDx=0;entryDy=0;" edge="1" parent="WIyWlLk6GJQsqaUBKTNV-1" source="tji_d3_G7364Ed7_e_69-222" target="tji_d3_G7364Ed7_e_69-228">
          <mxGeometry relative="1" as="geometry">
            <Array as="points">
              <mxPoint x="1134" y="455" />
            </Array>
          </mxGeometry>
        </mxCell>
        <mxCell id="tji_d3_G7364Ed7_e_69-222" value="Zähler + &quot; -&quot;&lt;div&gt;ausgeben&lt;/div&gt;" style="rounded=1;whiteSpace=wrap;html=1;" vertex="1" parent="WIyWlLk6GJQsqaUBKTNV-1">
          <mxGeometry x="1074" y="345" width="120" height="60" as="geometry" />
        </mxCell>
        <mxCell id="tji_d3_G7364Ed7_e_69-232" style="edgeStyle=orthogonalEdgeStyle;rounded=0;orthogonalLoop=1;jettySize=auto;html=1;exitX=0.5;exitY=0;exitDx=0;exitDy=0;entryX=0.5;entryY=1;entryDx=0;entryDy=0;" edge="1" parent="WIyWlLk6GJQsqaUBKTNV-1" source="tji_d3_G7364Ed7_e_69-228" target="tji_d3_G7364Ed7_e_69-184">
          <mxGeometry relative="1" as="geometry" />
        </mxCell>
        <mxCell id="tji_d3_G7364Ed7_e_69-228" value="" style="rhombus;" vertex="1" parent="WIyWlLk6GJQsqaUBKTNV-1">
          <mxGeometry x="959" y="440" width="30" height="30" as="geometry" />
        </mxCell>
      </root>
    </mxGraphModel>
  </diagram>
</mxfile>
